<svg width="45" height="43" viewBox="0 0 45 43" fill="none" xmlns="http://www.w3.org/2000/svg">
<path d="M17.1022 40.0682C18.4498 40.0682 19.5454 38.9726 19.5454 37.625C19.5454 36.2775 18.4498 35.1818 17.1022 35.1818C15.7547 35.1818 14.6591 36.2775 14.6591 37.625C14.6591 38.9726 15.7547 40.0682 17.1022 40.0682ZM17.1022 36.1591C17.9105 36.1591 18.5681 36.8167 18.5681 37.625C18.5681 38.4333 17.9105 39.0909 17.1022 39.0909C16.2939 39.0909 15.6363 38.4333 15.6363 37.625C15.6363 36.8167 16.2939 36.1591 17.1022 36.1591ZM18.1043 17.6454C17.4258 17.1959 17.0393 16.9 16.9849 16.8552C16.9667 16.7311 17.0077 16.6166 17.0536 16.565C17.0688 16.5469 17.0832 16.5306 17.1519 16.5259C17.3055 16.524 17.4076 16.6281 17.4134 16.6347C17.8638 17.2579 18.7429 17.4326 19.4156 17.0317C20.0827 16.6366 20.287 15.8101 19.89 15.1086C19.5874 14.5748 18.7438 13.8456 17.5166 13.7357C17.5014 13.6648 17.4887 13.6034 17.4846 13.5672C17.4139 13.1332 16.7508 13.1411 16.6827 13.5672L16.6415 13.778C15.9088 13.8954 15.2527 14.2333 14.7813 14.7737C14.1906 15.4484 13.9272 16.3484 14.0579 17.2427C14.244 18.5053 15.4446 19.3022 16.4104 19.9436C16.7139 20.145 17.3448 20.5639 17.4507 20.73C17.5414 20.8788 17.6282 21.0936 17.5252 21.2711C17.4421 21.4133 17.2675 21.503 17.0394 21.5192C16.8514 21.5268 16.5173 21.2348 16.3847 21.0325C15.9686 20.3749 15.0887 20.1554 14.3863 20.5372C13.7316 20.8923 13.5007 21.6415 13.8127 22.4011C14.1575 23.2428 15.299 24.1358 16.6329 24.2911L16.6828 24.5468C16.7509 24.9729 17.414 24.9806 17.4847 24.5468C17.4908 24.4925 17.5151 24.3828 17.541 24.2634C18.6409 24.1058 19.5936 23.5201 20.1125 22.6244C20.7033 21.6051 20.6651 20.4027 20.0076 19.3251C19.582 18.6246 18.8306 18.1274 18.1043 17.6454ZM19.2668 22.1338C18.8659 22.8277 18.0901 23.2781 17.1967 23.3402L17.0307 23.3459C15.9313 23.3459 14.9416 22.5795 14.7173 22.0298C14.66 21.8924 14.5599 21.5546 14.8509 21.397C14.934 21.3522 15.0255 21.3302 15.1162 21.3302C15.2947 21.3302 15.4693 21.4133 15.5638 21.5621C15.5696 21.5717 16.2461 22.5422 17.1118 22.4935C17.6625 22.4553 18.1206 22.1891 18.3697 21.7625C18.635 21.3044 18.6035 20.7424 18.2847 20.2203C18.0881 19.8987 17.6081 19.5656 16.9496 19.1285C16.1049 18.5674 15.1468 17.9317 15.0255 17.1015C14.9348 16.4897 15.1143 15.8761 15.517 15.417C15.8806 14.9999 16.4094 14.7471 17.0039 14.7051C18.1081 14.6278 18.8563 15.2662 19.0396 15.5898C19.1427 15.773 19.1732 16.0394 18.9164 16.191C18.6826 16.3294 18.3571 16.2731 18.1949 16.0479C18.0956 15.9219 17.7368 15.5077 17.0859 15.5506C16.7729 15.5735 16.5142 15.6976 16.3177 15.9209C16.0724 16.2025 15.9598 16.6042 16.0171 16.9965C16.0715 17.3687 16.4332 17.7113 17.5641 18.4604C18.2016 18.8822 18.8601 19.3194 19.1732 19.8338C19.6389 20.5964 19.6724 21.4343 19.2668 22.1338ZM44.7617 9.87307C44.6415 9.7814 44.4859 9.75189 44.3361 9.79C44.3209 9.79577 42.7414 10.2147 41.0158 9.455C40.5014 9.22886 39.9145 8.95874 39.299 8.67621C37.3995 7.80204 35.4557 6.91136 34.2046 6.60664V4.39772C34.2046 1.97272 32.2318 0 29.8068 0H4.39772C1.97272 0 0 1.97272 0 4.39772V38.6023C0 41.0273 1.97272 43 4.39772 43H29.8068C32.2318 43 34.2045 41.0273 34.2045 38.6023V23.1513C34.5639 23.2998 34.9484 23.4773 35.363 23.6722C37.0226 24.451 39.0879 25.4207 41.6886 25.4207C43.8168 25.4207 44.796 24.3088 44.8361 24.2621C44.9124 24.1734 44.9544 24.0598 44.9544 23.9433V10.2615C44.9544 10.1089 44.883 9.96572 44.7617 9.87307ZM43.9773 23.7343C43.7081 23.9614 42.9818 24.4434 41.6887 24.4434C39.3066 24.4434 37.3501 23.5252 35.7783 22.7876C34.7523 22.3056 33.8657 21.8896 33.0698 21.8208C32.5325 21.774 31.9541 21.7473 31.3624 21.7206C29.1731 21.6195 26.6927 21.504 25.7411 20.2862C25.3813 19.8252 25.3088 19.1305 25.5559 18.5139C25.8613 17.7561 26.5885 17.2417 27.5525 17.1033C28.2797 16.9983 29.1854 16.964 30.1455 16.9267C32.4769 16.838 35.1196 16.7368 36.9826 15.6288C37.2145 15.4914 37.2908 15.1908 37.1524 14.9589C37.013 14.727 36.7134 14.6515 36.4825 14.789C34.8343 15.7701 32.3233 15.8656 30.1082 15.9505C29.7003 15.9659 29.3057 15.9824 28.9235 16.0028C27.546 10.6718 22.6473 6.84109 17.1021 6.84109C10.3662 6.84109 4.88625 12.321 4.88625 19.057C4.88625 25.7929 10.3662 31.2729 17.1021 31.2729C22.5573 31.2729 27.2909 27.6957 28.8111 22.5151C29.6363 22.6144 30.4945 22.6586 31.3174 22.6969C31.8958 22.7236 32.4607 22.7494 32.9856 22.7942C33.0606 22.8007 33.1468 22.8257 33.2271 22.8412V38.6023C33.2271 40.4881 31.6925 42.0227 29.8067 42.0227H4.39772C2.51188 42.0227 0.977271 40.4881 0.977271 38.6023V4.39782C0.977271 2.51198 2.51188 0.977368 4.39772 0.977368H29.8068C31.6926 0.977368 33.2272 2.51198 33.2272 4.39782V6.49836C31.587 6.65717 28.0425 8.62256 27.6175 8.85573C27.3808 8.98551 27.2939 9.28231 27.4238 9.51901C27.5545 9.75668 27.8523 9.8416 28.087 9.7127C29.7133 8.82231 32.6031 7.4556 33.4916 7.46703C34.4307 7.51189 36.9035 8.64953 38.8905 9.56377C39.5109 9.84913 40.1035 10.1221 40.6227 10.3502C41.9789 10.9457 43.2529 10.9275 43.9773 10.8426V23.7343ZM24.9711 20.8874C25.6082 21.7038 26.6507 22.1261 27.8385 22.363C26.4012 27.0619 22.0771 30.2956 17.1023 30.2956C10.9057 30.2956 5.86372 25.2536 5.86372 19.057C5.86372 12.8603 10.9057 7.81836 17.1023 7.81836C22.1448 7.81836 26.6051 11.26 27.9321 16.0755C27.754 16.0932 27.5786 16.112 27.4133 16.1357C26.0954 16.3256 25.0885 17.0595 24.6495 18.1494C24.2688 19.097 24.3918 20.1458 24.9711 20.8874Z" fill="white"/>
</svg>
