<svg width="45" height="43" viewBox="0 0 45 43" fill="none" xmlns="http://www.w3.org/2000/svg">
<path d="M22.7684 20.5033V17.7943C23.2486 17.903 23.7288 18.1205 24.218 18.4104C24.363 18.4919 24.4989 18.5372 24.6438 18.5372C25.0787 18.5372 25.4321 18.202 25.4321 17.7581C25.4321 17.4228 25.2328 17.2054 25.0063 17.0785C24.3539 16.6708 23.6563 16.399 22.8227 16.2994V15.9913C22.8227 15.6561 22.5509 15.3843 22.2157 15.3843C21.8805 15.3843 21.5996 15.6561 21.5996 15.9913V16.2903C19.8419 16.4353 18.6369 17.4772 18.6369 18.9812C18.6369 20.5758 19.5973 21.3459 21.654 21.8805V24.671C20.8748 24.5261 20.2315 24.209 19.5701 23.7288C19.4433 23.6291 19.2711 23.5747 19.108 23.5747C18.6731 23.5747 18.3289 23.91 18.3289 24.3539C18.3289 24.6529 18.4738 24.8794 18.7094 25.0334C19.5701 25.6405 20.5396 26.021 21.5996 26.1297V26.9995C21.5996 27.3347 21.8805 27.6065 22.2157 27.6065C22.5509 27.6065 22.8227 27.3347 22.8227 26.9995V26.1569C24.6167 25.9848 25.8217 24.961 25.8217 23.4116C25.8307 21.8986 24.9157 21.0379 22.7684 20.5033ZM21.654 20.2043C20.5667 19.851 20.304 19.4886 20.304 18.8906C20.304 18.2745 20.757 17.7943 21.654 17.7037V20.2043ZM22.7684 24.7254V22.1613C23.8556 22.4966 24.1637 22.8771 24.1637 23.5023C24.1637 24.1818 23.6744 24.6257 22.7684 24.7254Z" fill="white"/>
<path d="M22.0798 12.1135C20.7389 12.1135 19.4342 12.3944 18.2201 12.938C14.8588 14.4511 12.6934 17.8124 12.6934 21.4999C12.6934 21.5996 12.6934 21.7083 12.7024 21.808C12.784 24.2542 13.7897 26.5374 15.5473 28.2408C17.305 29.9531 19.6335 30.8863 22.0798 30.8863C27.2532 30.8863 31.4662 26.6733 31.4662 21.4999C31.4662 16.3265 27.2532 12.1135 22.0798 12.1135ZM22.0798 29.6179C17.6674 29.6179 14.1068 26.166 13.9618 21.7627C13.9618 21.6721 13.9618 21.5905 13.9618 21.4999C13.9618 18.3107 15.8373 15.4115 18.7456 14.0977C19.7966 13.6266 20.9201 13.382 22.0798 13.382C26.5555 13.382 30.1978 17.0242 30.1978 21.4999C30.1978 25.9757 26.5555 29.6179 22.0798 29.6179Z" fill="white"/>
<path d="M22.0798 8.698C20.2496 8.698 18.4738 9.07853 16.8158 9.82147C12.2313 11.8872 9.27768 16.4717 9.27768 21.5001C9.27768 21.6541 9.27768 21.79 9.28674 21.9169C9.39546 25.2511 10.7726 28.3678 13.1736 30.6872C15.5745 33.0157 18.7456 34.3022 22.0889 34.3022C29.1468 34.3022 34.891 28.558 34.891 21.5001C34.891 14.4422 29.1377 8.698 22.0798 8.698ZM22.0798 33.0338C15.8192 33.0338 10.7545 28.1322 10.5461 21.8716C10.5461 21.7538 10.5371 21.636 10.5371 21.5001C10.5371 16.97 13.2008 12.8476 17.3322 10.9812C18.8272 10.3107 20.4218 9.96643 22.0707 9.96643C28.431 9.96643 33.6044 15.1398 33.6044 21.5001C33.6044 27.8604 28.4401 33.0338 22.0798 33.0338Z" fill="white"/>
<path d="M17.7762 7.89147C18.1295 7.89147 18.4104 7.6106 18.4104 7.25725V3.8506C19.1896 3.58785 19.7513 2.84492 19.7513 1.97513C19.7513 0.887903 18.8634 0 17.7762 0C16.689 0 15.8011 0.887903 15.8011 1.97513C15.8011 2.84492 16.3628 3.58785 17.142 3.8506V7.26631C17.142 7.6106 17.4228 7.89147 17.7762 7.89147ZM17.7762 1.26843C18.1658 1.26843 18.4829 1.58554 18.4829 1.97513C18.4829 2.36472 18.1658 2.68183 17.7762 2.68183C17.3866 2.68183 17.0695 2.36472 17.0695 1.97513C17.0695 1.58554 17.3866 1.26843 17.7762 1.26843Z" fill="white"/>
<path d="M26.3834 7.89147C26.7368 7.89147 27.0176 7.6106 27.0176 7.25725V3.8506C27.7968 3.58785 28.3586 2.84492 28.3586 1.97513C28.3586 0.887903 27.4707 0 26.3834 0C25.2962 0 24.4083 0.887903 24.4083 1.97513C24.4083 2.84492 24.97 3.58785 25.7492 3.8506V7.26631C25.7492 7.6106 26.0301 7.89147 26.3834 7.89147ZM26.3834 1.26843C26.773 1.26843 27.0901 1.58554 27.0901 1.97513C27.0901 2.36472 26.773 2.68183 26.3834 2.68183C25.9938 2.68183 25.6767 2.36472 25.6767 1.97513C25.6767 1.58554 25.9938 1.26843 26.3834 1.26843Z" fill="white"/>
<path d="M18.4104 39.1493V35.7336C18.4104 35.3802 18.1295 35.0994 17.7762 35.0994C17.4228 35.0994 17.142 35.3802 17.142 35.7336V39.1493C16.3628 39.412 15.8011 40.155 15.8011 41.0248C15.8011 42.112 16.689 42.9999 17.7762 42.9999C18.8634 42.9999 19.7513 42.112 19.7513 41.0248C19.7513 40.155 19.1896 39.412 18.4104 39.1493ZM17.7762 41.7315C17.3866 41.7315 17.0695 41.4144 17.0695 41.0248C17.0695 40.6352 17.3866 40.3181 17.7762 40.3181C18.1658 40.3181 18.4829 40.6352 18.4829 41.0248C18.4829 41.4144 18.1658 41.7315 17.7762 41.7315Z" fill="white"/>
<path d="M27.0176 39.1493V35.7336C27.0176 35.3802 26.7368 35.0994 26.3834 35.0994C26.0301 35.0994 25.7492 35.3802 25.7492 35.7336V39.1493C24.97 39.412 24.4083 40.155 24.4083 41.0248C24.4083 42.112 25.2962 42.9999 26.3834 42.9999C27.4707 42.9999 28.3586 42.112 28.3586 41.0248C28.3586 40.155 27.7968 39.412 27.0176 39.1493ZM26.3834 41.7315C25.9938 41.7315 25.6767 41.4144 25.6767 41.0248C25.6767 40.6352 25.9938 40.3181 26.3834 40.3181C26.773 40.3181 27.0901 40.6352 27.0901 41.0248C27.0901 41.4144 26.773 41.7315 26.3834 41.7315Z" fill="white"/>
<path d="M8.62535 14.9222H7.13041V10.3921C7.13041 10.0388 6.84954 9.75791 6.49619 9.75791H3.8506C3.58785 8.97873 2.84491 8.41699 1.97513 8.41699C0.887903 8.41699 0 9.3049 0 10.3921C0 11.4794 0.887903 12.3673 1.97513 12.3673C2.84491 12.3673 3.58785 11.8055 3.8506 11.0263H5.86197V15.5565C5.86197 15.9098 6.14284 16.1907 6.49619 16.1907H8.62535C8.9787 16.1907 9.25956 15.9098 9.25956 15.5565C9.25956 15.2031 8.9787 14.9222 8.62535 14.9222ZM1.98419 11.1079C1.5946 11.1079 1.27749 10.7908 1.27749 10.4012C1.27749 10.0116 1.5946 9.69449 1.98419 9.69449C2.37378 9.69449 2.69089 10.0116 2.69089 10.4012C2.69089 10.7908 2.37378 11.1079 1.98419 11.1079Z" fill="white"/>
<path d="M8.62535 26.8096H6.49619C6.14284 26.8096 5.86197 27.0904 5.86197 27.4438V31.9739H3.8506C3.58785 31.1947 2.84491 30.633 1.97513 30.633C0.887903 30.633 0 31.5209 0 32.6081C0 33.6954 0.887903 34.5833 1.97513 34.5833C2.84491 34.5833 3.58785 34.0215 3.8506 33.2423H6.49619C6.84954 33.2423 7.13041 32.9615 7.13041 32.6081V28.078H8.62535C8.9787 28.078 9.25956 27.7971 9.25956 27.4438C9.25956 27.0904 8.9787 26.8096 8.62535 26.8096ZM1.98419 33.3148C1.5946 33.3148 1.27749 32.9977 1.27749 32.6081C1.27749 32.2185 1.5946 31.9014 1.98419 31.9014C2.37378 31.9014 2.69089 32.2185 2.69089 32.6081C2.69089 32.9977 2.37378 33.3148 1.98419 33.3148Z" fill="white"/>
<path d="M4.71135 22.0798H7.76465C8.118 22.0798 8.39887 21.7989 8.39887 21.4456C8.39887 21.0922 8.118 20.8114 7.76465 20.8114H4.71135C4.4486 20.0322 3.70566 19.4705 2.83588 19.4705C1.74865 19.4705 0.860748 20.3584 0.860748 21.4456C0.860748 22.5328 1.74865 23.4207 2.83588 23.4207C3.71472 23.4298 4.4486 22.859 4.71135 22.0798ZM2.12918 21.4456C2.12918 21.056 2.44629 20.7389 2.83588 20.7389C3.22547 20.7389 3.54258 21.056 3.54258 21.4456C3.54258 21.8352 3.22547 22.1523 2.83588 22.1523C2.44629 22.1523 2.12918 21.8352 2.12918 21.4456Z" fill="white"/>
<path d="M42.1754 8.41699C41.3056 8.41699 40.5627 8.97873 40.2999 9.75791H37.6634C37.31 9.75791 37.0292 10.0388 37.0292 10.3921V14.9222H35.5342C35.1809 14.9222 34.9 15.2031 34.9 15.5565C34.9 15.9098 35.1809 16.1907 35.5342 16.1907H37.6634C38.0167 16.1907 38.2976 15.9098 38.2976 15.5565V11.0263H40.309C40.5717 11.8055 41.3147 12.3673 42.1845 12.3673C43.2717 12.3673 44.1596 11.4794 44.1596 10.3921C44.1596 9.3049 43.2717 8.41699 42.1754 8.41699ZM42.1754 11.1079C41.7858 11.1079 41.4687 10.7908 41.4687 10.4012C41.4687 10.0116 41.7858 9.69449 42.1754 9.69449C42.565 9.69449 42.8821 10.0116 42.8821 10.4012C42.8821 10.7908 42.574 11.1079 42.1754 11.1079Z" fill="white"/>
<path d="M42.1754 30.633C41.3056 30.633 40.5627 31.1947 40.2999 31.9739H38.2976V27.4438C38.2976 27.0904 38.0167 26.8096 37.6634 26.8096H35.5342C35.1809 26.8096 34.9 27.0904 34.9 27.4438C34.9 27.7971 35.1809 28.078 35.5342 28.078H37.0292V32.6081C37.0292 32.9615 37.31 33.2423 37.6634 33.2423H40.309C40.5717 34.0215 41.3147 34.5833 42.1845 34.5833C43.2717 34.5833 44.1596 33.6954 44.1596 32.6081C44.1596 31.5209 43.2717 30.633 42.1754 30.633ZM42.1754 33.3148C41.7858 33.3148 41.4687 32.9977 41.4687 32.6081C41.4687 32.2185 41.7858 31.9014 42.1754 31.9014C42.565 31.9014 42.8821 32.2185 42.8821 32.6081C42.8821 32.9977 42.574 33.3148 42.1754 33.3148Z" fill="white"/>
<path d="M39.4483 22.0798C39.711 22.859 40.454 23.4207 41.3238 23.4207C42.411 23.4207 43.2989 22.5328 43.2989 21.4456C43.2989 20.3584 42.411 19.4705 41.3238 19.4705C40.454 19.4705 39.711 20.0322 39.4483 20.8114H36.395C36.0416 20.8114 35.7608 21.0922 35.7608 21.4456C35.7608 21.7989 36.0416 22.0798 36.395 22.0798H39.4483ZM41.3147 20.7389C41.7043 20.7389 42.0214 21.056 42.0214 21.4456C42.0214 21.8352 41.7043 22.1523 41.3147 22.1523C40.9251 22.1523 40.608 21.8352 40.608 21.4456C40.608 21.056 40.9251 20.7389 41.3147 20.7389Z" fill="white"/>
</svg>
