<svg width="38" height="43" viewBox="0 0 38 43" fill="none" xmlns="http://www.w3.org/2000/svg">
<path d="M26.5223 14.3333C26.336 14.3333 26.1411 14.4193 26.0106 14.5512L18.1302 22.4317C17.7761 22.7857 17.4651 22.9104 17.1985 22.9118C16.9348 22.9118 16.6452 22.7972 16.2783 22.4317L12.705 18.8627C12.0543 18.1818 11.0208 19.231 11.6931 19.8775L15.2664 23.4465C15.8282 24.0083 16.489 24.3495 17.2014 24.3452C17.9109 24.3409 18.5974 23.9926 19.1421 23.4479L27.0254 15.5646C27.4698 15.1274 27.1802 14.3319 26.5238 14.3319L26.5223 14.3333ZM18.2377 0.0716667C18.0485 0.1548 17.7647 0.333967 17.4321 0.5375C17.0982 0.741033 16.4474 1.15383 15.8125 1.5007C14.5397 2.1887 12.9458 2.86953 11.4723 2.86953C9.89567 2.86953 8.71603 2.53987 7.61953 2.18583C6.52447 1.8318 5.5025 1.43333 4.30567 1.43333C3.19627 1.43333 2.1184 1.6082 1.28563 2.29763C0.450001 2.9885 0.00566807 4.1796 0.00566807 5.73333V17.2C0.00566807 18.8913 -0.266665 24.7494 2.96407 30.4555C4.8661 33.8123 8.15273 36.8983 11.2459 39.1873C12.7939 40.3311 14.2903 41.2728 15.5602 41.9365C16.8287 42.6001 17.7819 43 18.639 43C19.499 43 20.4493 42.5987 21.7178 41.9365C22.9877 41.2728 24.4841 40.3311 26.0321 39.1873C29.1253 36.8983 32.4105 33.8123 34.3139 30.4555C37.5447 24.7508 37.2723 18.8913 37.2723 17.2V5.73333C37.2723 4.1796 36.828 2.9885 35.9924 2.29763C35.161 1.60963 34.0817 1.43333 32.9723 1.43333C31.7769 1.43333 30.7535 1.8318 29.657 2.18297C28.5634 2.537 27.3823 2.86667 25.8057 2.86667C24.3293 2.86667 22.7269 2.18727 21.4555 1.49783C20.8191 1.15383 20.1798 0.763967 19.8358 0.534633C19.4875 0.3053 19.2009 0.161967 19.0303 0.0688C18.8296 -0.0229333 18.4455 -0.0229333 18.2362 0.0688L18.2377 0.0716667ZM18.639 1.56233C18.7709 1.56233 18.887 1.634 19.0733 1.75153C19.5004 2.01957 20.0838 2.38793 20.7689 2.75917C22.1392 3.50163 23.9223 4.3 25.8057 4.3C27.5859 4.3 28.959 3.913 30.0942 3.55037C31.2265 3.18487 32.1095 2.86667 32.9723 2.86667C33.9212 2.86667 34.635 3.03867 35.0793 3.40417C35.5237 3.7711 35.839 4.43617 35.839 5.73333V17.2C35.839 19.0304 36.0784 24.4312 33.0641 29.7488C31.3297 32.8133 28.1621 35.8262 25.1779 38.0364C23.6872 39.14 22.2395 40.0473 21.0556 40.668C19.8688 41.2886 18.8554 41.5667 18.639 41.5667C18.424 41.5667 17.4092 41.2886 16.2224 40.668C15.037 40.0473 13.5922 39.1415 12.0987 38.0364C9.1145 35.829 5.9497 32.8133 4.21537 29.7488C1.1982 24.4312 1.439 19.0304 1.439 17.2V5.73333C1.439 4.43617 1.75433 3.76967 2.19867 3.40417C2.643 3.03867 3.35537 2.86667 4.30567 2.86667C5.16853 2.86667 6.05003 3.18487 7.1838 3.55037C8.31613 3.913 9.69213 4.3 11.4723 4.3C13.3543 4.3 15.1273 3.5002 16.4976 2.7563C17.1827 2.38363 17.7661 2.0167 18.1932 1.74867C18.3796 1.634 18.5057 1.55803 18.6376 1.55803L18.639 1.56233Z" fill="white"/>
</svg>
