<svg width="45" height="45" viewBox="0 0 45 45" fill="none" xmlns="http://www.w3.org/2000/svg">
<path d="M37.3846 7.11923C31.7615 7.11923 26.4692 4.80385 22.5 1C18.5308 4.80385 13.2385 7.11923 7.61538 7.11923C5.3 7.11923 3.15 6.62308 1 5.96154C1 29.1154 10.0962 38.3769 22.5 44C34.9038 38.3769 44 29.1154 44 5.96154C41.85 6.62308 39.7 7.11923 37.3846 7.11923Z" stroke="white" stroke-width="2" stroke-miterlimit="10" stroke-linecap="round" stroke-linejoin="round"/>
<path d="M27.4615 32.4232H17.5385C15.7192 32.4232 14.2308 30.9347 14.2308 29.1155V22.5001C14.2308 20.6808 15.7192 19.1924 17.5385 19.1924H27.4615C29.2808 19.1924 30.7692 20.6808 30.7692 22.5001V29.1155C30.7692 30.9347 29.2808 32.4232 27.4615 32.4232Z" stroke="white" stroke-width="2" stroke-miterlimit="10" stroke-linecap="round" stroke-linejoin="round"/>
<path d="M29.1154 19.1924H15.8846V15.8847C15.8846 12.2462 18.8615 9.26929 22.5 9.26929C26.1385 9.26929 29.1154 12.2462 29.1154 15.8847V19.1924Z" stroke="white" stroke-width="2" stroke-miterlimit="10" stroke-linecap="round" stroke-linejoin="round"/>
<path d="M22.5 24.1538V27.4615" stroke="white" stroke-width="2" stroke-miterlimit="10" stroke-linecap="round" stroke-linejoin="round"/>
</svg>
