<svg width="30" height="30" viewBox="0 0 30 30" fill="none" xmlns="http://www.w3.org/2000/svg">
<path d="M30 1.28629V23.5817C30 23.9229 29.8646 24.25 29.6235 24.4912C29.382 24.7323 29.0548 24.868 28.714 24.868C28.3728 24.868 28.0456 24.7323 27.8042 24.4912C27.563 24.25 27.4276 23.9229 27.4276 23.5817V4.39477L2.17374 29.6271C1.93495 29.8658 1.61106 30 1.27333 30C0.935629 30 0.61174 29.8658 0.372947 29.6271C0.134154 29.3884 0 29.0646 0 28.7268C0 28.3889 0.134154 28.0651 0.372947 27.8264L25.6053 2.57257H6.41842C6.0773 2.57257 5.75012 2.43705 5.50889 2.19582C5.26769 1.95458 5.13216 1.62743 5.13216 1.28629C5.13216 0.945141 5.26769 0.61799 5.50889 0.376758C5.75012 0.135525 6.0773 3.04894e-05 6.41842 0H28.714C29.0548 3.04894e-05 29.382 0.135525 29.6235 0.376758C29.8646 0.61799 30 0.945141 30 1.28629Z" fill="white"/>
</svg>
