<svg width="30" height="30" viewBox="0 0 30 30" fill="none" xmlns="http://www.w3.org/2000/svg">
<path d="M0.73061 4.26741L21.4627 24.9995H12.4979C11.1179 24.9995 9.99792 26.1195 9.99792 27.4994C9.99792 28.8794 11.1179 29.9994 12.4979 29.9994H27.4976C28.5075 29.9994 29.42 29.3894 29.8075 28.4569C29.935 28.1469 29.9975 27.8219 29.9975 27.4994H30V12.4997C30 11.1198 28.88 9.99979 27.5001 9.99979C26.1201 9.99979 25.0001 11.1198 25.0001 12.4997V21.4646L4.26804 0.732485C3.78055 0.244995 3.14056 0 2.50057 0C1.86059 0 1.2206 0.244995 0.73311 0.732485C-0.24437 1.70746 -0.24687 3.29243 0.73061 4.26741Z" fill="white"/>
</svg>
